<mxfile host="app.diagrams.net" modified="2022-05-25T16:51:35.178Z" agent="5.0 (Windows NT 10.0; Win64; x64) AppleWebKit/537.36 (KHTML, like Gecko) Chrome/101.0.4951.67 Safari/537.36" etag="akhV7loErNRYVHfMDl2i" version="18.0.6" type="github">
  <diagram id="FkAby5kWB2kR30akd2Xo" name="Page-1">
    <mxGraphModel dx="1174" dy="468" grid="1" gridSize="10" guides="1" tooltips="1" connect="1" arrows="1" fold="1" page="1" pageScale="1" pageWidth="850" pageHeight="1100" math="0" shadow="0">
      <root>
        <mxCell id="0" />
        <mxCell id="1" parent="0" />
        <mxCell id="Yig2HDH3E38qDw7FlrPe-3" style="edgeStyle=orthogonalEdgeStyle;rounded=0;orthogonalLoop=1;jettySize=auto;html=1;" parent="1" source="Yig2HDH3E38qDw7FlrPe-1" target="Yig2HDH3E38qDw7FlrPe-2" edge="1">
          <mxGeometry relative="1" as="geometry" />
        </mxCell>
        <mxCell id="Yig2HDH3E38qDw7FlrPe-1" value="" style="shape=image;html=1;verticalAlign=top;verticalLabelPosition=bottom;labelBackgroundColor=#ffffff;imageAspect=0;aspect=fixed;image=https://cdn4.iconfinder.com/data/icons/Free-Medical-Icons-Set/128x128/Application.png" parent="1" vertex="1">
          <mxGeometry x="30" y="40" width="128" height="128" as="geometry" />
        </mxCell>
        <mxCell id="Yig2HDH3E38qDw7FlrPe-5" style="edgeStyle=orthogonalEdgeStyle;rounded=0;orthogonalLoop=1;jettySize=auto;html=1;" parent="1" source="Yig2HDH3E38qDw7FlrPe-2" target="Yig2HDH3E38qDw7FlrPe-4" edge="1">
          <mxGeometry relative="1" as="geometry" />
        </mxCell>
        <mxCell id="Yig2HDH3E38qDw7FlrPe-2" value="Registration Queue&lt;br&gt;AWS SQS/Azure EventHub&lt;br&gt;Hasura Events" style="outlineConnect=0;dashed=0;verticalLabelPosition=bottom;verticalAlign=top;align=center;html=1;shape=mxgraph.aws3.queue;fillColor=#D9A741;gradientColor=none;" parent="1" vertex="1">
          <mxGeometry x="310" y="80" width="73.5" height="48" as="geometry" />
        </mxCell>
        <mxCell id="Yig2HDH3E38qDw7FlrPe-9" style="edgeStyle=orthogonalEdgeStyle;rounded=0;orthogonalLoop=1;jettySize=auto;html=1;entryX=0;entryY=0.5;entryDx=0;entryDy=0;" parent="1" source="Yig2HDH3E38qDw7FlrPe-4" target="Yig2HDH3E38qDw7FlrPe-8" edge="1">
          <mxGeometry relative="1" as="geometry" />
        </mxCell>
        <mxCell id="Yig2HDH3E38qDw7FlrPe-11" style="edgeStyle=orthogonalEdgeStyle;rounded=0;orthogonalLoop=1;jettySize=auto;html=1;entryX=0.5;entryY=0;entryDx=0;entryDy=0;entryPerimeter=0;" parent="1" source="Yig2HDH3E38qDw7FlrPe-4" target="Yig2HDH3E38qDw7FlrPe-6" edge="1">
          <mxGeometry relative="1" as="geometry" />
        </mxCell>
        <mxCell id="Yig2HDH3E38qDw7FlrPe-4" value="ProcessRegistrationQueue" style="aspect=fixed;perimeter=ellipsePerimeter;html=1;align=center;shadow=0;dashed=0;fontColor=#4277BB;labelBackgroundColor=#ffffff;fontSize=12;spacingTop=3;image;image=img/lib/ibm/applications/microservice.svg;" parent="1" vertex="1">
          <mxGeometry x="545.65" y="74" width="82.2" height="60" as="geometry" />
        </mxCell>
        <mxCell id="Yig2HDH3E38qDw7FlrPe-13" style="edgeStyle=orthogonalEdgeStyle;rounded=0;orthogonalLoop=1;jettySize=auto;html=1;entryX=0.979;entryY=0.4;entryDx=0;entryDy=0;entryPerimeter=0;" parent="1" source="Yig2HDH3E38qDw7FlrPe-6" target="Yig2HDH3E38qDw7FlrPe-12" edge="1">
          <mxGeometry relative="1" as="geometry" />
        </mxCell>
        <mxCell id="Yig2HDH3E38qDw7FlrPe-6" value="OnboardingQueue&lt;br&gt;AWS SQS/Azure EventHub&lt;br&gt;Hasura Events" style="outlineConnect=0;dashed=0;verticalLabelPosition=bottom;verticalAlign=top;align=center;html=1;shape=mxgraph.aws3.queue;fillColor=#D9A741;gradientColor=none;" parent="1" vertex="1">
          <mxGeometry x="550" y="190" width="73.5" height="48" as="geometry" />
        </mxCell>
        <mxCell id="Yig2HDH3E38qDw7FlrPe-8" value="Notify User" style="shape=image;html=1;verticalAlign=top;verticalLabelPosition=bottom;labelBackgroundColor=#ffffff;imageAspect=0;aspect=fixed;image=https://cdn1.iconfinder.com/data/icons/ui-essential-17/32/UI_Essential_Outline_1_essential-app-ui-email-notification-alert-128.png" parent="1" vertex="1">
          <mxGeometry x="730" y="71" width="66" height="66" as="geometry" />
        </mxCell>
        <mxCell id="Yig2HDH3E38qDw7FlrPe-16" value="" style="edgeStyle=orthogonalEdgeStyle;rounded=0;orthogonalLoop=1;jettySize=auto;html=1;" parent="1" source="Yig2HDH3E38qDw7FlrPe-12" target="Yig2HDH3E38qDw7FlrPe-15" edge="1">
          <mxGeometry relative="1" as="geometry" />
        </mxCell>
        <mxCell id="Yig2HDH3E38qDw7FlrPe-12" value="OnboardingRequestService" style="aspect=fixed;perimeter=ellipsePerimeter;html=1;align=center;shadow=0;dashed=0;fontColor=#4277BB;labelBackgroundColor=#ffffff;fontSize=12;spacingTop=3;image;image=img/lib/ibm/applications/microservice.svg;" parent="1" vertex="1">
          <mxGeometry x="383.5" y="190" width="82.2" height="60" as="geometry" />
        </mxCell>
        <mxCell id="Yig2HDH3E38qDw7FlrPe-18" value="" style="edgeStyle=orthogonalEdgeStyle;rounded=0;orthogonalLoop=1;jettySize=auto;html=1;" parent="1" source="Yig2HDH3E38qDw7FlrPe-15" target="Yig2HDH3E38qDw7FlrPe-17" edge="1">
          <mxGeometry relative="1" as="geometry" />
        </mxCell>
        <mxCell id="Yig2HDH3E38qDw7FlrPe-15" value="OnboardUser" style="html=1;outlineConnect=0;whiteSpace=wrap;fillColor=#99ffff;shape=mxgraph.archimate3.application;appType=proc;archiType=rounded;" parent="1" vertex="1">
          <mxGeometry x="349" y="310" width="150" height="30" as="geometry" />
        </mxCell>
        <mxCell id="Yig2HDH3E38qDw7FlrPe-21" value="" style="edgeStyle=orthogonalEdgeStyle;rounded=0;orthogonalLoop=1;jettySize=auto;html=1;" parent="1" source="Yig2HDH3E38qDw7FlrPe-17" target="Yig2HDH3E38qDw7FlrPe-20" edge="1">
          <mxGeometry relative="1" as="geometry" />
        </mxCell>
        <mxCell id="Yig2HDH3E38qDw7FlrPe-17" value="ApprovalQueue" style="outlineConnect=0;dashed=0;verticalLabelPosition=bottom;verticalAlign=top;align=center;html=1;shape=mxgraph.aws3.queue;fillColor=#D9A741;gradientColor=none;" parent="1" vertex="1">
          <mxGeometry x="553" y="301" width="73.5" height="48" as="geometry" />
        </mxCell>
        <mxCell id="Yig2HDH3E38qDw7FlrPe-23" value="" style="edgeStyle=orthogonalEdgeStyle;rounded=0;orthogonalLoop=1;jettySize=auto;html=1;" parent="1" source="Yig2HDH3E38qDw7FlrPe-20" target="Yig2HDH3E38qDw7FlrPe-22" edge="1">
          <mxGeometry relative="1" as="geometry" />
        </mxCell>
        <mxCell id="Yig2HDH3E38qDw7FlrPe-20" value="OnboardUser" style="html=1;outlineConnect=0;whiteSpace=wrap;fillColor=#99ffff;shape=mxgraph.archimate3.application;appType=proc;archiType=rounded;" parent="1" vertex="1">
          <mxGeometry x="515" y="398" width="150" height="30" as="geometry" />
        </mxCell>
        <mxCell id="Yig2HDH3E38qDw7FlrPe-26" value="" style="edgeStyle=orthogonalEdgeStyle;rounded=0;orthogonalLoop=1;jettySize=auto;html=1;" parent="1" source="Yig2HDH3E38qDw7FlrPe-22" target="Yig2HDH3E38qDw7FlrPe-24" edge="1">
          <mxGeometry relative="1" as="geometry" />
        </mxCell>
        <mxCell id="Yig2HDH3E38qDw7FlrPe-22" value="ApprovalQueue&lt;br&gt;AWS SQS/Azure EventHub&lt;br&gt;Hasura Events" style="outlineConnect=0;dashed=0;verticalLabelPosition=bottom;verticalAlign=top;align=center;html=1;shape=mxgraph.aws3.queue;fillColor=#D9A741;gradientColor=none;" parent="1" vertex="1">
          <mxGeometry x="553" y="460" width="73.5" height="48" as="geometry" />
        </mxCell>
        <mxCell id="Yig2HDH3E38qDw7FlrPe-27" value="" style="edgeStyle=orthogonalEdgeStyle;rounded=0;orthogonalLoop=1;jettySize=auto;html=1;" parent="1" source="Yig2HDH3E38qDw7FlrPe-24" target="Yig2HDH3E38qDw7FlrPe-25" edge="1">
          <mxGeometry relative="1" as="geometry" />
        </mxCell>
        <mxCell id="Yig2HDH3E38qDw7FlrPe-24" value="NotificationService" style="aspect=fixed;perimeter=ellipsePerimeter;html=1;align=center;shadow=0;dashed=0;fontColor=#4277BB;labelBackgroundColor=#ffffff;fontSize=12;spacingTop=3;image;image=img/lib/ibm/applications/microservice.svg;" parent="1" vertex="1">
          <mxGeometry x="548.65" y="590" width="82.2" height="60" as="geometry" />
        </mxCell>
        <mxCell id="Yig2HDH3E38qDw7FlrPe-25" value="Onboarding Email" style="shape=image;html=1;verticalAlign=top;verticalLabelPosition=bottom;labelBackgroundColor=#ffffff;imageAspect=0;aspect=fixed;image=https://cdn1.iconfinder.com/data/icons/ui-essential-17/32/UI_Essential_Outline_1_essential-app-ui-email-notification-alert-128.png" parent="1" vertex="1">
          <mxGeometry x="720" y="587" width="66" height="66" as="geometry" />
        </mxCell>
      </root>
    </mxGraphModel>
  </diagram>
</mxfile>
